# xmcd
#
# Track frame offsets:
#	150
#	23925
#	46140
#	69078
#	88465
#	112888
#	135263
#	157398
#
# Disc length: 2458 seconds
#
# Revision: 2
# Processed by: cddbd v1.5.2PL0 Copyright (c) Steve Scherf et al.
# Submitted via: audiograbber 1.83.01
#
DISCID=63099808
DTITLE=Grupo Niche - Brilliantes
DYEAR=1900
DGENRE=Tropical
TTITLE0=Una avontura
TTITLE1=Ana mile
TTITLE2=Romeo y Julieta
TTITLE3=Bar y copas
TTITLE4=Miserable
TTITLE5=No me falto nada de ti
TTITLE6=Dona pastora
TTITLE7=Nuestro sueno
EXTD=
EXTT0=Grupo Niche
EXTT1=Grupo Niche
EXTT2=
EXTT3=
EXTT4=
EXTT5=
EXTT6=
EXTT7=
PLAYORDER=
